# xmcd CD database file
#
# Track frame offsets:
#	150
#	23074
#	41650
#
# Disc length: 720 seconds
#
# Revision: 0
# Processed by: cddbd v1.5PL3 Copyright (c) Steve Scherf et al.
# Submitted via: CDex 1.51
#
DISCID=1b02ce03
DTITLE=Carl Henry Brueggen - Idler
DYEAR=2004
DGENRE=Jazz
TTITLE0=Idler
TTITLE1=Man's Favorite Spot
TTITLE2=Rum Toddy
EXTD=YEAR: 2004
EXTT0=
EXTT1=
EXTT2=
PLAYORDER=
